M48
;Layer_Color=6321
;FILE_FORMAT=2:5
INCH,LZ
;TYPE=PLATED
T1F00S00C0.00787
T2F00S00C0.01181
T3F00S00C0.02400
T4F00S00C0.02756
T6F00S00C0.02800
T7F00S00C0.03150
T8F00S00C0.05906
;TYPE=NON_PLATED
T9F00S00C0.11811
%
T01
X0176772Y0267323
X0183071
X0111417Y0269685
X0113386Y0272441
X0105512Y0269685
X0051181Y0272441
X0047244Y0268898
X0040945
T02
X016378Y0264764
X016811
Y0269094
X016378
Y0273425
Y0277756
X016811
Y0273425
X0172441
Y0277756
Y0269094
Y0264764
X0185827Y0270472
X0240846Y0271654
X0101181Y0271457
Y0267126
X009685
Y0271457
X009252
Y0267126
Y0275787
X009685
Y0280118
X009252
X0101181
Y0275787
X0036614Y0275
Y0279331
X0032283
X0027953
Y0275
X0032283
Y0270669
X0027953
Y0266339
X0032283
X0036614
Y0270669
X0016227Y0276673
X0012402Y0277165
X00261Y02874
X0043898Y0294685
X0068996Y033248
X0075689
X0081595
X0078248Y0343701
X014313Y0355709
Y0392323
X0141117Y0408834
X0148302Y0408637
X0150369Y0421038
X0149385Y0426354
X0147613Y0431294
X0125295Y0431201
X0084252Y0416535
X0158169Y0394488
X01625
X0168405Y0393701
X0172736Y0394094
X018376Y0393062
X019124Y0392913
X0200272Y04026
X0200984Y0377362
X0217372Y0356153
X0241634Y0360531
X0240417Y0382283
X02427Y03852
X0239272Y0388583
X0229035Y0392126
X0228172Y0401
X02375Y0402756
X024813Y0409842
X0254232Y0397736
X0261417Y0423622
X0270669Y0423622
X0281594Y0416929
X025767Y0438189
X0226181Y0443307
X0211772Y04425
X0214618Y0437008
X0225098Y041063
X0231693Y0416936
X0241142Y0318799
T03
X017061Y0439626
Y0444626
X017561
Y0439626
X018061
Y0444626
X018561
Y0439626
X019061
Y0444626
T04
X0169291Y0307086
X0155512
X0102362
X0088583
X003376Y030748
X001998
T06
X0180118Y028248
X0141929Y028563
X0136024Y0265354
X0111417Y0288189
X0064961
X0068701Y0282677
X0068898Y0267421
X0002756Y0272736
X0003839Y0407972
X000374Y0413681
X0010039
Y0408071
X001565
X0015551Y0413779
X001565Y0419783
X0010138Y0419685
X0003937Y0419783
X0037008Y0418012
X0067936Y0426577
X0074016Y0439764
X0073228Y044685
X0062598
Y0440551
X0080709Y0442126
X0094882Y0422047
X0111122Y0409842
X0090551Y0330709
X0195374Y0370669
X0206972Y03687
X0221358Y0426083
X0224902Y043189
X0240059Y0438189
X0245866Y0404035
T07
X0238605Y0250138
Y0260138
X0248605Y0255138
Y0245138
X0249294Y029189
Y030189
X0239295Y029689
Y030689
X0017995Y0337854
Y0347854
X0007995Y0352854
Y0342854
X0007503Y0384783
Y0394783
X0017503Y0389783
Y0379783
X0238999Y0348622
Y0338622
X0248999Y0333622
Y0343622
T08
X0245692Y026565
X0246381Y0312402
X0015082Y0358366
X001459Y0400295
X0246086Y0354134
T09
X027559Y030315
X0043898Y034252
X027559Y038189
M30
